# xmcd
#
# Track frame offsets:
#  150
#  3270
#  21145
#  25730
#  37825
#  53943
#  66381
#  79383
#  90564
#  106519
#  121664
#  140312
#  143321
#  152129
#  156565
#
# Disc length: 2600 seconds
#
# Revision: 0
# Processed by: cddbd v1.5.1PL2 Copyright (c) Steve Scherf et al.
# Submitted via: Collectorz.com_Music_Collector 6.11
#
DISCID=af0a260f
DTITLE=Todd Snider - Canal Street Tavern, Dayton - 14/06/2002 [CD1)
DYEAR=2002
DGENRE=Alt Country
TTITLE0=Intro
TTITLE1=Alright Guy
TTITLE2=Intro: Vinyl Records
TTITLE3=Vinyl Records
TTITLE4=Betty Was Black (Willie Was White)
TTITLE5=Story: Out All Night
TTITLE6=Out All Night
TTITLE7=What's Wrong With You
TTITLE8=Stuck All Night
TTITLE9=Story: Cincinnati Charity Event
TTITLE10=You Think You Know Somebody
TTITLE11=Rumble (Guitar Problems)
TTITLE12=Keep Off The Grass
TTITLE13=Story: New Connection
TTITLE14=New Connection (With Middle Story)
EXTD=
EXTT0=
EXTT1=
EXTT2=
EXTT3=
EXTT4=
EXTT5=
EXTT6=
EXTT7=
EXTT8=
EXTT9=
EXTT10=
EXTT11=
EXTT12=
EXTT13=
EXTT14=
PLAYORDER=
